<svg width="100" height="114" viewBox="0 0 100 114" fill="none" xmlns="http://www.w3.org/2000/svg">
<path d="M9.1022 102.417L0 0.344749H100L90.8865 102.4L49.9379 113.75L9.1022 102.417Z" fill="#1572B6"/>
<path d="M49.9944 105.075L83.083 95.8993L90.864 8.68874H49.9944V105.075Z" fill="#33A9DC"/>
<path d="M49.9944 45.667H66.5613L67.7019 32.8494H49.9944V20.3367H81.3891L81.0898 23.6963L78.0125 58.1966H49.9944V45.667Z" fill="white"/>
<path d="M50.0718 78.1832H50.0153L36.0741 74.417L35.1819 64.434H22.624L24.3801 84.0895L50.0266 91.2267H50.1V78.1832H50.0718Z" fill="#EBEBEB"/>
<path d="M65.5091 57.6506L64.0015 74.4038L50.0376 78.1701V91.2135L75.7011 84.0989L75.8874 81.9815L78.067 57.6449H65.5091V57.6506Z" fill="white"/>
<path d="M50.0476 20.3367V32.855H19.8161L19.5563 30.043L18.986 23.6963L18.6868 20.3367H50.0476ZM50.0024 45.667V58.1853H36.2192L35.9764 55.3734L35.4061 49.0267L35.1069 45.667H49.9968H50.0024Z" fill="#EBEBEB"/>
</svg>
