<svg width="105" height="105" viewBox="0 0 105 105" fill="none" xmlns="http://www.w3.org/2000/svg">
<g clip-path="url(#clip0_3_75)">
<path d="M0 0H105V105H0V0Z" fill="#F7DF1E"/>
<path d="M27.6101 87.744L35.645 82.8795C37.1954 85.6276 38.6064 87.9531 41.986 87.9531C45.2304 87.9531 47.2729 86.6858 47.2729 81.7516V48.2009H57.1413V81.8911C57.1413 92.1121 51.1489 96.7633 42.4085 96.7633C34.5171 96.7674 29.9357 92.6781 27.6101 87.744Z" fill="black"/>
<path d="M62.5012 86.6866L70.5362 82.0354C72.6526 85.4889 75.4006 88.0278 80.2609 88.0278C84.3502 88.0278 86.9547 85.9852 86.9547 83.1633C86.9547 79.7796 84.2763 78.5819 79.7646 76.6091L77.2996 75.5509C70.1793 72.5198 65.4584 68.7136 65.4584 60.6787C65.4584 53.2795 71.0981 47.6398 79.9082 47.6398C86.1795 47.6398 90.6912 49.826 93.9355 55.5353L86.2533 60.4695C84.5635 57.4384 82.7301 56.2408 79.9123 56.2408C77.0207 56.2408 75.1914 58.0742 75.1914 60.4695C75.1914 63.4308 77.0248 64.6284 81.2535 66.4618L83.7185 67.52C92.1062 71.113 96.8271 74.7798 96.8271 83.0239C96.8271 91.9037 89.8504 96.7682 80.4742 96.7682C71.3113 96.7682 65.3928 92.3959 62.5012 86.6866Z" fill="black"/>
</g>
<defs>
<clipPath id="clip0_3_75">
<rect width="105" height="105" fill="white"/>
</clipPath>
</defs>
</svg>
