<svg width="118" height="105" viewBox="0 0 118 105" fill="none" xmlns="http://www.w3.org/2000/svg">
<path d="M58.9919 62.9379C64.8106 62.9379 69.5276 58.2209 69.5276 52.4023C69.5276 46.5836 64.8106 41.8667 58.9919 41.8667C53.1733 41.8667 48.4563 46.5836 48.4563 52.4023C48.4563 58.2209 53.1733 62.9379 58.9919 62.9379Z" fill="#00D8FF"/>
<path d="M58.9966 76.5523C44.2007 76.5523 31.2603 74.8028 21.5753 71.495C8.26741 66.946 0 59.631 0 52.4011C0 45.4358 7.65206 38.6091 20.4695 34.1399C30.9789 30.4761 44.6606 28.4578 58.9955 28.4578H58.9976C73.0647 28.4578 86.5658 30.4394 97.0153 34.037C110.151 38.5587 117.993 45.4232 117.993 52.4011C117.993 59.6426 109.438 66.9754 95.6649 71.537C85.9022 74.7703 72.8799 76.5523 58.9966 76.5523ZM58.9966 33.4983C45.4115 33.4983 31.9734 35.4672 22.1287 38.8989C10.3235 43.0153 5.04047 48.6459 5.04047 52.4011C5.04047 56.3095 10.7246 62.46 23.204 66.7244C32.3703 69.8568 44.7467 71.5118 58.9966 71.5118C72.3559 71.5118 84.8142 69.8211 94.0793 66.7517C107.046 62.4558 112.951 56.3022 112.951 52.4011C112.951 48.7657 107.45 42.9607 95.3719 38.8034C85.438 35.3822 72.5187 33.4983 58.9966 33.4983Z" fill="#00D8FF"/>
<path d="M35.1044 104.956C32.9759 104.956 31.0626 104.499 29.4329 103.557C23.399 100.083 21.3083 90.0437 23.84 76.7054C25.915 65.7749 31.0007 52.9154 38.1623 40.4938H38.1655C45.1917 28.3095 53.6523 17.6038 61.989 10.3476C72.469 1.22963 82.3315 -2.13804 88.3769 1.34934C94.6512 4.96587 96.7304 16.0402 93.8017 30.2501C91.7299 40.3142 86.7661 52.4838 79.827 64.5179C72.4364 77.3365 64.4557 87.6705 56.7511 94.4079C48.9185 101.255 41.1509 104.956 35.1044 104.956ZM42.5307 43.0119C35.7429 54.7814 30.7371 67.4047 28.7933 77.6442C26.4611 89.9282 28.6978 97.3167 31.9499 99.1911C35.3407 101.15 43.5031 99.2972 53.4339 90.6129C60.7268 84.2377 68.3432 74.3426 75.4607 62.0019C82.1383 50.4225 86.8984 38.7843 88.8641 29.2347C91.6206 15.8554 89.239 7.66462 85.8598 5.71564C82.7095 3.90317 74.9357 5.765 65.2979 14.15C57.3707 21.0481 49.2849 31.2981 42.5307 43.0119Z" fill="#00D8FF"/>
<path d="M82.9235 105C77.2131 105 69.959 101.547 62.4088 95.0493C53.9744 87.7921 45.3731 76.9614 38.1894 64.5545C31.1463 52.3901 26.0964 39.7144 23.971 28.8595C21.3027 15.224 23.3158 4.99713 29.3538 1.50346C35.6187 -2.12463 46.253 1.60532 57.1005 11.2389C64.7904 18.0666 72.8552 28.4437 79.81 40.4589C87.2247 53.2607 92.1937 65.3357 94.1816 75.3768C96.915 89.1729 94.7234 99.9931 88.467 103.615C86.8624 104.544 84.9943 105 82.9235 105ZM42.5515 62.0311C49.3582 73.7869 57.7947 84.4296 65.6956 91.229C75.1727 99.3851 82.6925 101.144 85.9425 99.2528C89.3249 97.2954 91.7989 89.2937 89.2367 76.3554C87.3549 66.851 82.5875 55.3125 75.45 42.9844C68.7566 31.4228 61.051 21.4868 53.7539 15.0067C43.5417 5.93802 35.2533 3.90818 31.8793 5.86556C28.7332 7.68538 26.465 15.3553 28.918 27.8914C30.9384 38.2117 35.7804 50.3351 42.5515 62.0311Z" fill="#00D8FF"/>
</svg>
