<svg width="70" height="70" viewBox="0 0 70 70" fill="none" xmlns="http://www.w3.org/2000/svg">
<path d="M12.2076 57.6123C11.005 56.8991 9.9708 55.9897 8.76017 54.7022C8.1318 54.0181 7.5091 53.3298 6.89217 52.6375C5.03616 50.5868 3.86565 49.6419 2.65505 49.253C1.65408 48.9334 0.836883 48.2732 0.3832 47.4175C-0.0705107 46.5618 -0.123505 45.5807 0.235851 44.6903C0.595179 43.7996 1.33744 43.0726 2.29932 42.6692C3.26121 42.2655 4.36393 42.2184 5.36488 42.5381C8.37938 43.501 10.4197 45.1593 13.1697 48.2012C12.7928 47.784 14.5326 49.7238 14.9054 50.1232C15.667 50.9328 16.2283 51.425 16.6692 51.6852C17.4869 52.1739 19.0222 52.3842 21.2791 52.1845C21.3714 50.8222 21.6559 49.4992 22.0889 48.2796C10.1913 45.6906 3.45676 38.865 3.45676 25.4703C3.45676 21.0483 4.93995 17.0685 7.69789 13.7305C6.82402 10.5424 6.9563 6.68734 8.90849 2.34732C9.13006 1.8564 9.4716 1.41545 9.90839 1.05648C10.3452 0.6975 10.8663 0.429463 11.4339 0.27181C11.7586 0.186219 11.943 0.146985 12.2677 0.104201C15.4867 -0.334427 20.0325 0.710463 25.9573 4.01272C29.4879 3.2784 33.1023 2.90981 36.7282 2.91435C40.3841 2.91435 44.0159 3.28523 47.4876 4.01272C53.4082 0.685498 57.9622 -0.359392 61.205 0.104201C61.5458 0.150558 61.8344 0.211184 62.0788 0.282506C62.6353 0.445753 63.145 0.715565 63.5716 1.07294C63.9983 1.43029 64.3315 1.86653 64.5482 2.35089C66.5003 6.68734 66.6328 10.5424 65.7588 13.727C68.5287 17.0649 70 21.0197 70 25.4703C70 38.8685 63.2896 45.6727 51.392 48.2653C51.8928 49.7452 52.1535 51.4001 52.1535 53.1866C52.1538 56.4153 52.138 59.6438 52.1053 62.8722C53.0057 63.047 53.8107 63.4923 54.3852 64.1333C54.9598 64.7741 55.2684 65.5716 55.2595 66.3913C55.2507 67.211 54.9246 68.0028 54.3362 68.6337C53.7478 69.2646 52.9331 69.6959 52.0291 69.8548C47.4635 70.6679 44.0802 67.9577 44.0802 64.4165L44.0882 62.8259L44.1082 60.3119C44.1284 57.787 44.1362 55.5404 44.1362 53.1866C44.1362 50.7009 43.4026 49.0783 42.4327 48.3367C39.783 46.304 41.1257 42.4346 44.5974 42.0888C56.4909 40.9012 61.9826 36.8037 61.9826 25.4703C61.9826 22.0647 60.7319 19.251 58.3229 16.8973C57.8154 16.4025 57.4746 15.7905 57.34 15.1314C57.2051 14.4723 57.2818 13.7928 57.561 13.1706C58.2267 11.6942 58.5112 9.75783 57.9461 7.41485L57.9059 7.42555C55.9377 7.92126 53.4564 8.99466 50.4579 10.8098C49.9744 11.1018 49.4251 11.2961 48.8481 11.3793C48.2713 11.4624 47.681 11.4324 47.1186 11.2913C43.735 10.4578 40.2393 10.0391 36.7282 10.0467C33.1607 10.0467 29.6251 10.4711 26.3379 11.2948C25.7777 11.4348 25.1899 11.4646 24.6153 11.3821C24.0408 11.2996 23.4931 11.1067 23.0108 10.817C19.9962 9.00893 17.503 7.93907 15.5227 7.43982C14.9455 9.76853 15.2301 11.6978 15.8915 13.1706C16.1714 13.7924 16.2487 14.4718 16.1147 15.1308C15.9807 15.7899 15.6408 16.4021 15.1339 16.8973C12.7407 19.2296 11.474 22.0967 11.474 25.4703C11.474 36.7823 16.9699 40.9046 28.7992 42.0888C32.2668 42.4346 33.6137 46.2861 30.98 48.3225C30.2104 48.9216 29.2602 50.9328 29.2602 53.1866V64.4202C29.2602 67.9363 25.9132 70.5718 21.4035 69.8691C20.4885 69.7262 19.6577 69.305 19.0532 68.6778C18.4485 68.0504 18.1078 67.2556 18.0888 66.4295C18.0699 65.6031 18.3741 64.7968 18.9494 64.1481C19.5247 63.4992 20.3353 63.0482 21.2431 62.8722V59.3419C17.5952 59.5595 14.5807 59.0279 12.2076 57.6123Z" fill="#55569E"/>
</svg>
