<svg width="70" height="70" viewBox="0 0 70 70" fill="none" xmlns="http://www.w3.org/2000/svg">
<path d="M14.6904 7.78126C14.6895 9.84394 13.9147 11.8217 12.5365 13.2796C11.1583 14.7373 9.28964 15.5557 7.34155 15.5547C5.39348 15.5537 3.52558 14.7333 2.14877 13.274C0.771982 11.8148 -0.000951706 9.83616 8.79451e-07 7.77348C0.000983233 5.7108 0.775792 3.733 2.15398 2.27519C3.53216 0.8174 5.40083 -0.0010077 7.3489 9.31193e-07C9.29697 0.00104108 11.1649 0.821435 12.5417 2.2807C13.9185 3.73997 14.6914 5.71858 14.6904 7.78126ZM14.9108 21.3138H0.220375V70H14.9108V21.3138ZM38.1217 21.3138H23.5046V70H37.9747V44.4514C37.9747 30.219 55.493 28.8968 55.493 44.4514V70H70V39.163C70 15.1698 44.0712 16.0642 37.9747 27.8468L38.1217 21.3138Z" fill="#55569E"/>
</svg>
